<svg width="257" height="61" viewBox="0 0 257 61" fill="none" xmlns="http://www.w3.org/2000/svg">
<path d="M31.1119 16.5263C30.9825 18.0789 30.6461 21.3395 30.3356 21.9605C29.9474 22.7368 36.1579 27.3947 39.2632 21.9605L37.7106 16.5263C36.6755 17.1732 33.9066 18.0789 31.1119 16.5263Z" fill="white" stroke="black"/>
<path d="M13.6247 46.0263L2 60H66.4342L55.8059 46.0263H13.6247Z" fill="black" stroke="black"/>
<line x1="19.3027" y1="54.3421" x2="49.1316" y2="54.3421" stroke="black" stroke-width="2" stroke-linecap="round"/>
<path d="M19.4671 53.4013H48.9671L51.6842 35.1579H15.9737L19.4671 53.4013Z" fill="#ADADAD"/>
<path d="M16.5683 38.2631L19.4671 53.4013M19.4671 53.4013H48.9671L51.6842 35.1579H15.9737L19.4671 53.4013Z" stroke="black"/>
<path d="M30.1054 22.1231C23.8399 21.3803 19.4671 23.9013 17.5744 26.5798L12.0921 37.3502L17.1382 42.9211L15.9009 35.1579H51.9275L50.8598 42.9211L56.3421 37.3502L50.8598 26.5798C49.5545 24.8467 44.5888 21.5289 39.2632 22.1231C37.6968 23.8563 34.4912 26.2827 30.1054 22.1231Z" fill="#F4B548" stroke="black"/>
<path d="M30.3355 15.3618C31.6526 17.3026 35.3816 19.2434 37.7499 15.7267C38.875 14.056 39.6514 10.3158 39.6514 10.3158C39.6514 10.3158 39.8034 7.57092 39.2632 4.4934C38.7229 1.41588 33.7475 0.952603 31.5 2.16446C29.2526 3.37631 28.9123 6.52695 28.7829 7.7378C28.3947 10.6218 28.3267 12.4018 30.3355 15.3618Z" fill="white"/>
<path d="M30.3355 22.3487L30.7237 20.0197L31.1119 16.5263L30.3355 15.3618M30.3355 15.3618C31.6526 17.3026 35.3816 19.2434 37.7499 15.7267M30.3355 15.3618C28.3267 12.4018 28.3947 10.6218 28.7829 7.7378C28.9123 6.52695 29.2526 3.37631 31.5 2.16446C33.7475 0.952603 38.7229 1.41588 39.2632 4.4934C39.8034 7.57092 39.6514 10.3158 39.6514 10.3158C39.6514 10.3158 38.875 14.056 37.7499 15.7267M37.7499 15.7267L38.0987 18.0789L38.5262 20.0197L39.2632 21.9605" stroke="black"/>
<path d="M35.3816 1.64758C34.8065 3.13185 27.6184 9.33881 27.6184 7.71961C27.6184 6.10041 28.9123 -1.18603 35.3816 1.64758Z" fill="black" stroke="black"/>
<path d="M35.4402 1.27159C35.0521 2.17729 36.6047 2.43605 39.7099 6.31764C41.4585 8.50332 38.5455 -0.669212 35.4402 1.27159Z" fill="black" stroke="black"/>
<g filter="url(#filter0_i_30_40)">
<path d="M95.222 24.656C96.9813 24.656 98.47 24.9557 99.688 25.555C100.906 26.135 101.834 26.9663 102.472 28.049C103.11 29.1123 103.429 30.3787 103.429 31.848C103.429 32.718 103.294 33.5977 103.023 34.487C102.772 35.357 102.356 36.1497 101.776 36.865C101.215 37.5803 100.452 38.1603 99.485 38.605C98.5377 39.0303 97.368 39.243 95.976 39.243H92.96V46H88.755V24.656H95.222ZM95.947 35.154C96.585 35.154 97.1167 35.0477 97.542 34.835C97.9673 34.603 98.296 34.3227 98.528 33.994C98.7793 33.646 98.9533 33.2883 99.05 32.921C99.166 32.5537 99.224 32.2347 99.224 31.964C99.224 31.7513 99.1853 31.471 99.108 31.123C99.05 30.7557 98.9147 30.3883 98.702 30.021C98.4893 29.6537 98.1607 29.3443 97.716 29.093C97.2907 28.8417 96.7107 28.716 95.976 28.716H92.96V35.154H95.947ZM105.887 35.357C105.887 33.8877 106.167 32.4957 106.728 31.181C107.288 29.8663 108.062 28.7063 109.048 27.701C110.053 26.6763 111.213 25.874 112.528 25.294C113.842 24.714 115.254 24.424 116.762 24.424C118.25 24.424 119.652 24.714 120.967 25.294C122.281 25.874 123.441 26.6763 124.447 27.701C125.471 28.7063 126.264 29.8663 126.825 31.181C127.405 32.4957 127.695 33.8877 127.695 35.357C127.695 36.865 127.405 38.2763 126.825 39.591C126.264 40.9057 125.471 42.0657 124.447 43.071C123.441 44.057 122.281 44.8303 120.967 45.391C119.652 45.9517 118.25 46.232 116.762 46.232C115.254 46.232 113.842 45.9517 112.528 45.391C111.213 44.8303 110.053 44.057 109.048 43.071C108.062 42.0657 107.288 40.9057 106.728 39.591C106.167 38.2763 105.887 36.865 105.887 35.357ZM110.237 35.357C110.237 36.3043 110.401 37.1937 110.73 38.025C111.078 38.837 111.551 39.562 112.151 40.2C112.769 40.8187 113.475 41.302 114.268 41.65C115.08 41.998 115.959 42.172 116.907 42.172C117.815 42.172 118.656 41.998 119.43 41.65C120.222 41.302 120.909 40.8187 121.489 40.2C122.069 39.562 122.523 38.837 122.852 38.025C123.18 37.1937 123.345 36.3043 123.345 35.357C123.345 34.3903 123.171 33.4913 122.823 32.66C122.494 31.8287 122.03 31.1037 121.431 30.485C120.851 29.847 120.164 29.354 119.372 29.006C118.579 28.658 117.719 28.484 116.791 28.484C115.863 28.484 115.002 28.658 114.21 29.006C113.417 29.354 112.721 29.847 112.122 30.485C111.522 31.1037 111.058 31.8287 110.73 32.66C110.401 33.4913 110.237 34.3903 110.237 35.357ZM138.354 24.656C139.688 24.656 140.877 24.83 141.921 25.178C142.965 25.5067 143.835 25.99 144.531 26.628C145.246 27.2467 145.788 28.0007 146.155 28.89C146.522 29.76 146.706 30.746 146.706 31.848C146.706 32.718 146.571 33.588 146.3 34.458C146.049 35.328 145.623 36.1207 145.024 36.836C144.444 37.5513 143.671 38.1313 142.704 38.576C141.737 39.0013 140.539 39.214 139.108 39.214H136.092V46H131.887V24.656H138.354ZM139.079 35.154C139.717 35.154 140.249 35.0477 140.674 34.835C141.099 34.6223 141.428 34.3517 141.66 34.023C141.911 33.6943 142.085 33.356 142.182 33.008C142.298 32.6407 142.356 32.3023 142.356 31.993C142.356 31.761 142.317 31.471 142.24 31.123C142.182 30.7557 142.047 30.3883 141.834 30.021C141.621 29.6537 141.293 29.3443 140.848 29.093C140.423 28.8417 139.843 28.716 139.108 28.716H136.092V35.154H139.079ZM143.023 37.764L148.301 46H143.4L138.006 37.88L143.023 37.764ZM149.893 24.656H164.277V28.716H159.086V46H154.881V28.716H149.893V24.656ZM168.335 24.656H181.675V28.716H172.54V33.559H180.457V37.619H172.54V46H168.335V24.656ZM184.419 35.357C184.419 33.8877 184.699 32.4957 185.26 31.181C185.82 29.8663 186.594 28.7063 187.58 27.701C188.585 26.6763 189.745 25.874 191.06 25.294C192.374 24.714 193.786 24.424 195.294 24.424C196.782 24.424 198.184 24.714 199.499 25.294C200.813 25.874 201.973 26.6763 202.979 27.701C204.003 28.7063 204.796 29.8663 205.357 31.181C205.937 32.4957 206.227 33.8877 206.227 35.357C206.227 36.865 205.937 38.2763 205.357 39.591C204.796 40.9057 204.003 42.0657 202.979 43.071C201.973 44.057 200.813 44.8303 199.499 45.391C198.184 45.9517 196.782 46.232 195.294 46.232C193.786 46.232 192.374 45.9517 191.06 45.391C189.745 44.8303 188.585 44.057 187.58 43.071C186.594 42.0657 185.82 40.9057 185.26 39.591C184.699 38.2763 184.419 36.865 184.419 35.357ZM188.769 35.357C188.769 36.3043 188.933 37.1937 189.262 38.025C189.61 38.837 190.083 39.562 190.683 40.2C191.301 40.8187 192.007 41.302 192.8 41.65C193.612 41.998 194.491 42.172 195.439 42.172C196.347 42.172 197.188 41.998 197.962 41.65C198.754 41.302 199.441 40.8187 200.021 40.2C200.601 39.562 201.055 38.837 201.384 38.025C201.712 37.1937 201.877 36.3043 201.877 35.357C201.877 34.3903 201.703 33.4913 201.355 32.66C201.026 31.8287 200.562 31.1037 199.963 30.485C199.383 29.847 198.696 29.354 197.904 29.006C197.111 28.658 196.251 28.484 195.323 28.484C194.395 28.484 193.534 28.658 192.742 29.006C191.949 29.354 191.253 29.847 190.654 30.485C190.054 31.1037 189.59 31.8287 189.262 32.66C188.933 33.4913 188.769 34.3903 188.769 35.357ZM210.419 24.656H214.624V41.94H224.658V46H210.419V24.656ZM228.997 24.656H233.202V46H228.997V24.656Z" fill="#B9811F"/>
<path d="M236.971 24.656H242.336L256.256 46H250.833L236.971 24.656ZM236.681 46L244.279 34.052L246.251 38.286L241.901 46H236.681ZM246.541 32.486L250.949 24.656H256.053L248.716 36.111L246.541 32.486Z" fill="black"/>
<path d="M236.971 24.656H242.336L256.256 46H250.833L236.971 24.656ZM236.681 46L244.279 34.052L246.251 38.286L241.901 46H236.681ZM246.541 32.486L250.949 24.656H256.053L248.716 36.111L246.541 32.486Z" fill="#7E7A7A" fill-opacity="0.2"/>
</g>
<defs>
<filter id="filter0_i_30_40" x="85.755" y="24.424" width="170.501" height="24.808" filterUnits="userSpaceOnUse" color-interpolation-filters="sRGB">
<feFlood flood-opacity="0" result="BackgroundImageFix"/>
<feBlend mode="normal" in="SourceGraphic" in2="BackgroundImageFix" result="shape"/>
<feColorMatrix in="SourceAlpha" type="matrix" values="0 0 0 0 0 0 0 0 0 0 0 0 0 0 0 0 0 0 127 0" result="hardAlpha"/>
<feOffset dx="-5" dy="6"/>
<feGaussianBlur stdDeviation="1.5"/>
<feComposite in2="hardAlpha" operator="arithmetic" k2="-1" k3="1"/>
<feColorMatrix type="matrix" values="0 0 0 0 0.0352495 0 0 0 0 0.302181 0 0 0 0 0.159818 0 0 0 0.25 0"/>
<feBlend mode="normal" in2="shape" result="effect1_innerShadow_30_40"/>
</filter>
</defs>
</svg>
